<svg xmlns="http://www.w3.org/2000/svg" viewBox="0 0 1200 800" width="1200" height="800" role="img" aria-label="FlowDesk — dashboard concept">
<defs>
  <linearGradient id="bg-flowdesk" x1="0" y1="0" x2="1" y2="1">
    <stop offset="0" stop-color="#1a1033"/><stop offset="1" stop-color="#0B1120"/>
  </linearGradient>
  <linearGradient id="accent-flowdesk" x1="0" y1="0" x2="1" y2="0">
    <stop offset="0" stop-color="#8B5CF6"/><stop offset="1" stop-color="#22D3EE"/>
  </linearGradient>
</defs>
<rect width="1200" height="800" fill="url(#bg-flowdesk)"/>
<!-- subtle grid -->
<g stroke="#1E293B" stroke-width="0.5" opacity="0.4"><path d="M0 100 H1200 M0 200 H1200 M0 300 H1200 M0 400 H1200 M0 500 H1200 M0 600 H1200 M0 700 H1200"/></g>
<!-- top bar -->
<rect x="0" y="0" width="1200" height="56" fill="#0F172A"/>
<rect x="0" y="55" width="1200" height="1" fill="#8B5CF6" opacity="0.4"/>
<circle cx="28" cy="28" r="14" fill="#8B5CF6" opacity="0.2" stroke="#8B5CF6" stroke-width="1.5"/>
<text x="28" y="33" text-anchor="middle" font-family="Arial,Helvetica,sans-serif" font-size="11" font-weight="800" fill="#8B5CF6">FL</text>
<text x="52" y="27" font-family="Arial,Helvetica,sans-serif" font-size="15" font-weight="700" fill="#E6EDF7">FlowDesk</text>
<text x="52" y="42" font-family="ui-monospace,Menlo,monospace" font-size="10" fill="#8FA3BF">Project Intake &amp; Lifecycle Engine</text>
<!-- live badge -->
<rect x="980" y="14" width="90" height="28" rx="14" fill="#8B5CF6" opacity="0.15" stroke="#8B5CF6" stroke-width="1"/>
<circle cx="1000" cy="28" r="4" fill="#34D399"><animate attributeName="opacity" values="1;0.3;1" dur="2s" repeatCount="indefinite"/></circle>
<text x="1012" y="33" font-family="ui-monospace,Menlo,monospace" font-size="10" font-weight="700" fill="#8B5CF6">LIVE</text>
<!-- window controls -->
<circle cx="1100" cy="28" r="5" fill="#F87171"/><circle cx="1118" cy="28" r="5" fill="#FBBF24"/><circle cx="1136" cy="28" r="5" fill="#34D399"/>
<!-- sidebar -->
<rect x="0" y="56" width="180" height="744" fill="#0F172A"/>
<rect x="179" y="56" width="1" height="744" fill="#1E293B"/>
<text x="20" y="80" font-family="Arial,Helvetica,sans-serif" font-size="12" fill="#8FA3BF"> Inbox</text><text x="20" y="116" font-family="Arial,Helvetica,sans-serif" font-size="12" fill="#8FA3BF"> AI Triage</text><text x="20" y="152" font-family="Arial,Helvetica,sans-serif" font-size="12" fill="#8FA3BF"> Capacity</text><text x="20" y="188" font-family="Arial,Helvetica,sans-serif" font-size="12" fill="#8FA3BF"> Assignments</text><text x="20" y="224" font-family="Arial,Helvetica,sans-serif" font-size="12" fill="#8FA3BF"> SLA Watch</text><text x="20" y="260" font-family="Arial,Helvetica,sans-serif" font-size="12" fill="#8FA3BF"> Audit Log</text><text x="20" y="296" font-family="Arial,Helvetica,sans-serif" font-size="12" fill="#8FA3BF"> Settings</text>
<!-- stats row -->
<rect x="220" y="76" width="230" height="64" rx="10" fill="#0F172A" stroke="#1E293B"/><rect x="220" y="76" width="3" height="64" rx="1" fill="#34D399"/><text x="236" y="100" font-family="ui-monospace,Menlo,monospace" font-size="22" font-weight="800" fill="#34D399">1,247</text><text x="236" y="122" font-family="ui-monospace,Menlo,monospace" font-size="9" fill="#475569" letter-spacing="1">TODAY</text><rect x="465" y="76" width="230" height="64" rx="10" fill="#0F172A" stroke="#1E293B"/><rect x="465" y="76" width="3" height="64" rx="1" fill="#22D3EE"/><text x="481" y="100" font-family="ui-monospace,Menlo,monospace" font-size="22" font-weight="800" fill="#22D3EE">2.4s</text><text x="481" y="122" font-family="ui-monospace,Menlo,monospace" font-size="9" fill="#475569" letter-spacing="1">AVG RESPONSE</text><rect x="710" y="76" width="230" height="64" rx="10" fill="#0F172A" stroke="#1E293B"/><rect x="710" y="76" width="3" height="64" rx="1" fill="#FBBF24"/><text x="726" y="100" font-family="ui-monospace,Menlo,monospace" font-size="22" font-weight="800" fill="#FBBF24">18</text><text x="726" y="122" font-family="ui-monospace,Menlo,monospace" font-size="9" fill="#475569" letter-spacing="1">ACTIVE SLAS</text><rect x="955" y="76" width="230" height="64" rx="10" fill="#0F172A" stroke="#1E293B"/><rect x="955" y="76" width="3" height="64" rx="1" fill="#F87171"/><text x="971" y="100" font-family="ui-monospace,Menlo,monospace" font-size="22" font-weight="800" fill="#F87171">3</text><text x="971" y="122" font-family="ui-monospace,Menlo,monospace" font-size="9" fill="#475569" letter-spacing="1">FAILSAFE HITS</text>
<!-- main content -->
<text x="220" y="240" font-family="ui-monospace,Menlo,monospace" font-size="10" font-weight="700" fill="#8FA3BF" letter-spacing="2">PIPELINE ACTIVITY</text>
<rect x="220" y="250" width="960" height="340" rx="10" fill="#0B1120" stroke="#1E293B"/>
<!-- column headers -->
<text x="240" y="278" font-family="ui-monospace,Menlo,monospace" font-size="9" font-weight="700" fill="#475569" letter-spacing="1.5">STEP</text>
<text x="310" y="278" font-family="ui-monospace,Menlo,monospace" font-size="9" font-weight="700" fill="#475569" letter-spacing="1.5">ACTION</text>
<text x="820" y="278" font-family="ui-monospace,Menlo,monospace" font-size="9" font-weight="700" fill="#475569" letter-spacing="1.5">STATUS</text>
<text x="960" y="278" font-family="ui-monospace,Menlo,monospace" font-size="9" font-weight="700" fill="#475569" letter-spacing="1.5">DETAIL</text>
<line x1="220" y1="286" x2="1180" y2="286" stroke="#1E293B"/>
<rect x="220" y="296" width="960" height="48" rx="6" fill="#0F172A" opacity="0.5"/><circle cx="250" cy="320" r="13" fill="#8B5CF6" opacity="0.15" stroke="#8B5CF6" stroke-width="1.2"/><text x="250" y="324" text-anchor="middle" font-family="ui-monospace,Menlo,monospace" font-size="11" font-weight="800" fill="#8B5CF6">1</text><text x="310" y="324" font-family="Arial,Helvetica,sans-serif" font-size="12" fill="#E6EDF7">Slack message captured from #client-requests</text><circle cx="835" cy="318" r="4" fill="#34D399"/><text x="850" y="322" font-family="ui-monospace,Menlo,monospace" font-size="9" font-weight="700" fill="#34D399">COMPLETE</text><text x="960" y="322" font-family="ui-monospace,Menlo,monospace" font-size="10" fill="#8FA3BF">Webhook · 0ms</text><rect x="220" y="352" width="960" height="48" rx="6" fill="#0F172A" opacity="0.5"/><circle cx="250" cy="376" r="13" fill="#8B5CF6" opacity="0.15" stroke="#8B5CF6" stroke-width="1.2"/><text x="250" y="380" text-anchor="middle" font-family="ui-monospace,Menlo,monospace" font-size="11" font-weight="800" fill="#8B5CF6">2</text><text x="310" y="380" font-family="Arial,Helvetica,sans-serif" font-size="12" fill="#E6EDF7">GPT-4 classified: Urgent · Bug · EN</text><circle cx="835" cy="374" r="4" fill="#34D399"/><text x="850" y="378" font-family="ui-monospace,Menlo,monospace" font-size="9" font-weight="700" fill="#34D399">COMPLETE</text><text x="960" y="378" font-family="ui-monospace,Menlo,monospace" font-size="10" fill="#8FA3BF">2.1s</text><rect x="220" y="408" width="960" height="48" rx="6" fill="#0F172A" opacity="0.5"/><circle cx="250" cy="432" r="13" fill="#8B5CF6" opacity="0.15" stroke="#8B5CF6" stroke-width="1.2"/><text x="250" y="436" text-anchor="middle" font-family="ui-monospace,Menlo,monospace" font-size="11" font-weight="800" fill="#8B5CF6">3</text><text x="310" y="436" font-family="Arial,Helvetica,sans-serif" font-size="12" fill="#E6EDF7">Redis capacity score: Sarah=3, Mike=5, Jen=2</text><circle cx="835" cy="430" r="4" fill="#34D399"/><text x="850" y="434" font-family="ui-monospace,Menlo,monospace" font-size="9" font-weight="700" fill="#34D399">COMPLETE</text><text x="960" y="434" font-family="ui-monospace,Menlo,monospace" font-size="10" fill="#8FA3BF">0.3ms</text><rect x="220" y="464" width="960" height="48" rx="6" fill="#0F172A" opacity="0.5"/><circle cx="250" cy="488" r="13" fill="#8B5CF6" opacity="0.15" stroke="#8B5CF6" stroke-width="1.2"/><text x="250" y="492" text-anchor="middle" font-family="ui-monospace,Menlo,monospace" font-size="11" font-weight="800" fill="#8B5CF6">4</text><text x="310" y="492" font-family="Arial,Helvetica,sans-serif" font-size="12" fill="#E6EDF7">Auto-assigned to Mike (lowest load)</text><circle cx="835" cy="486" r="4" fill="#34D399"/><text x="850" y="490" font-family="ui-monospace,Menlo,monospace" font-size="9" font-weight="700" fill="#34D399">COMPLETE</text><text x="960" y="490" font-family="ui-monospace,Menlo,monospace" font-size="10" fill="#8FA3BF">SLA: 2h</text><rect x="220" y="520" width="960" height="48" rx="6" fill="#0F172A" opacity="0.5"/><circle cx="250" cy="544" r="13" fill="#8B5CF6" opacity="0.15" stroke="#8B5CF6" stroke-width="1.2"/><text x="250" y="548" text-anchor="middle" font-family="ui-monospace,Menlo,monospace" font-size="11" font-weight="800" fill="#8B5CF6">5</text><text x="310" y="548" font-family="Arial,Helvetica,sans-serif" font-size="12" fill="#E6EDF7">SLA watcher active — 1h 42m remaining</text><circle cx="835" cy="542" r="4" fill="#22D3EE"/><text x="850" y="546" font-family="ui-monospace,Menlo,monospace" font-size="9" font-weight="700" fill="#22D3EE">RUNNING</text><text x="960" y="546" font-family="ui-monospace,Menlo,monospace" font-size="10" fill="#8FA3BF">Escalation: off</text><rect x="220" y="576" width="960" height="48" rx="6" fill="#0F172A" opacity="0.5"/><circle cx="250" cy="600" r="13" fill="#8B5CF6" opacity="0.15" stroke="#8B5CF6" stroke-width="1.2"/><text x="250" y="604" text-anchor="middle" font-family="ui-monospace,Menlo,monospace" font-size="11" font-weight="800" fill="#8B5CF6">6</text><text x="310" y="604" font-family="Arial,Helvetica,sans-serif" font-size="12" fill="#E6EDF7">Full action logged to PostgreSQL</text><circle cx="835" cy="598" r="4" fill="#34D399"/><text x="850" y="602" font-family="ui-monospace,Menlo,monospace" font-size="9" font-weight="700" fill="#34D399">COMPLETE</text><text x="960" y="602" font-family="ui-monospace,Menlo,monospace" font-size="10" fill="#8FA3BF">corr: a8f3-2b91</text>
<!-- flow nodes -->
<text x="220" y="630" font-family="ui-monospace,Menlo,monospace" font-size="10" font-weight="700" fill="#8FA3BF" letter-spacing="2">SYSTEM FLOW</text>
<rect x="220" y="640" width="102.5" height="36" rx="8" fill="#8B5CF6" opacity="0.08" stroke="#8B5CF6" stroke-width="1.2"/><text x="271.25" y="663" text-anchor="middle" font-family="ui-monospace,Menlo,monospace" font-size="10" font-weight="700" fill="#8B5CF6">Slack</text><path d="M322.5 658 L342.5 658" stroke="#475569" stroke-width="1.5" marker-end="url(#arrow-#)" fill="none"/><rect x="342.5" y="640" width="102.5" height="36" rx="8" fill="#8B5CF6" opacity="0.08" stroke="#8B5CF6" stroke-width="1.2"/><text x="393.75" y="663" text-anchor="middle" font-family="ui-monospace,Menlo,monospace" font-size="10" font-weight="700" fill="#8B5CF6">GPT-4</text><path d="M445.0 658 L465.0 658" stroke="#475569" stroke-width="1.5" marker-end="url(#arrow-#)" fill="none"/><rect x="465.0" y="640" width="102.5" height="36" rx="8" fill="#8B5CF6" opacity="0.08" stroke="#8B5CF6" stroke-width="1.2"/><text x="516.25" y="663" text-anchor="middle" font-family="ui-monospace,Menlo,monospace" font-size="10" font-weight="700" fill="#8B5CF6">Claude</text><path d="M567.5 658 L587.5 658" stroke="#475569" stroke-width="1.5" marker-end="url(#arrow-#)" fill="none"/><rect x="587.5" y="640" width="102.5" height="36" rx="8" fill="#8B5CF6" opacity="0.08" stroke="#8B5CF6" stroke-width="1.2"/><text x="638.75" y="663" text-anchor="middle" font-family="ui-monospace,Menlo,monospace" font-size="10" font-weight="700" fill="#8B5CF6">Regex</text><path d="M690.0 658 L710.0 658" stroke="#475569" stroke-width="1.5" marker-end="url(#arrow-#)" fill="none"/><rect x="710.0" y="640" width="102.5" height="36" rx="8" fill="#8B5CF6" opacity="0.08" stroke="#8B5CF6" stroke-width="1.2"/><text x="761.25" y="663" text-anchor="middle" font-family="ui-monospace,Menlo,monospace" font-size="10" font-weight="700" fill="#8B5CF6">Redis</text><path d="M812.5 658 L832.5 658" stroke="#475569" stroke-width="1.5" marker-end="url(#arrow-#)" fill="none"/><rect x="832.5" y="640" width="102.5" height="36" rx="8" fill="#8B5CF6" opacity="0.08" stroke="#8B5CF6" stroke-width="1.2"/><text x="883.75" y="663" text-anchor="middle" font-family="ui-monospace,Menlo,monospace" font-size="10" font-weight="700" fill="#8B5CF6">Assign</text><path d="M935.0 658 L955.0 658" stroke="#475569" stroke-width="1.5" marker-end="url(#arrow-#)" fill="none"/><rect x="955.0" y="640" width="102.5" height="36" rx="8" fill="#8B5CF6" opacity="0.08" stroke="#8B5CF6" stroke-width="1.2"/><text x="1006.25" y="663" text-anchor="middle" font-family="ui-monospace,Menlo,monospace" font-size="10" font-weight="700" fill="#8B5CF6">SLA</text><path d="M1057.5 658 L1077.5 658" stroke="#475569" stroke-width="1.5" marker-end="url(#arrow-#)" fill="none"/><rect x="1077.5" y="640" width="102.5" height="36" rx="8" fill="#8B5CF6" opacity="0.08" stroke="#8B5CF6" stroke-width="1.2"/><text x="1128.75" y="663" text-anchor="middle" font-family="ui-monospace,Menlo,monospace" font-size="10" font-weight="700" fill="#8B5CF6">Audit</text><defs><marker id="arrow-#" markerWidth="8" markerHeight="8" refX="6" refY="3" orient="auto"><path d="M0,0 L6,3 L0,6 Z" fill="#475569"/></marker></defs>
<!-- footer -->
<rect x="0" y="772" width="1200" height="28" fill="#0F172A"/>
<rect x="0" y="772" width="1200" height="1" fill="#1E293B"/>
<text x="220" y="790" font-family="ui-monospace,Menlo,monospace" font-size="10" fill="#475569">92 nodes · v5.1 · 3× AI failsafe</text>
<text x="1180" y="790" text-anchor="end" font-family="ui-monospace,Menlo,monospace" font-size="10" fill="#475569">CONCEPT UI · ILLUSTRATIVE</text>
</svg>